<svg width="100" height="100" viewBox="0 0 100 100" fill="none" xmlns="http://www.w3.org/2000/svg">
<circle cx="50" cy="50" r="50" fill="#E3B873"/>
<path d="M35.67 43.515C36.02 42.8383 36.58 42.1733 37.35 41.52C38.12 40.8667 38.9833 40.3183 39.94 39.875C42.1567 38.8483 44.14 38.7317 45.89 39.525C46.8233 39.945 47.325 40.225 47.395 40.365C47.4883 40.505 47.5233 40.6567 47.5 40.82C47.4767 40.9833 47.4767 41.2283 47.5 41.555C49.5767 40.7383 51.07 41.3333 51.98 43.34C52.7733 45.1367 52.9833 47.5867 52.61 50.69C52.2133 53.7933 51.4317 56.4417 50.265 58.635C49.4017 61.085 48.0367 63.3833 46.17 65.53C45.4467 66.3933 44.77 67.0467 44.14 67.49C43.5333 67.9567 43.1017 68.1667 42.845 68.12C42.3783 68.2133 41.9583 68.3067 41.585 68.4C41.0717 68.54 40.6283 68.61 40.255 68.61C40.2083 68.6567 40.1617 68.6917 40.115 68.715C40.0917 68.7383 40.0683 68.7733 40.045 68.82L38.995 69.135C38.9483 69.5083 38.645 69.765 38.085 69.905C37.525 70.0683 36.8833 70.1033 36.16 70.01C35.46 69.9167 34.7483 69.7067 34.025 69.38C33.3017 69.0767 32.765 68.6333 32.415 68.05C31.855 66.79 31.4933 65.7867 31.33 65.04C30.8633 62.5667 30.91 59.3933 31.47 55.52C31.89 52.6733 32.6367 50.0367 33.71 47.61C34.2467 46.35 34.9 44.985 35.67 43.515ZM42.215 47.47C40.4883 50.9233 39.3333 54.6333 38.75 58.6C38.5633 59.9767 38.5283 61.26 38.645 62.45H38.715L38.75 62.415C41.2233 58.6817 43.09 54.6333 44.35 50.27C44.77 48.7533 44.9567 47.5517 44.91 46.665C44.8867 45.7783 44.735 45.2067 44.455 44.95C44.3617 45.0433 44.3033 45.09 44.28 45.09C44.28 45.09 44.2683 45.0667 44.245 45.02C44.1517 44.9033 44.0233 44.8567 43.86 44.88C43.5333 45.3233 43.23 45.7783 42.95 46.245L42.215 47.47ZM52.3863 48.065C52.2697 47.5983 52.328 47.155 52.5613 46.735C52.7947 46.315 53.203 45.895 53.7863 45.475C54.393 45.0317 54.9413 44.775 55.4313 44.705L55.4663 44.67C55.583 44.6233 55.688 44.565 55.7813 44.495C55.898 44.425 56.0147 44.355 56.1313 44.285C57.1113 43.445 57.998 42.5117 58.7913 41.485C58.8147 41.4617 58.8263 41.4383 58.8263 41.415C58.8263 41.3917 58.8497 41.3567 58.8963 41.31C59.223 40.5633 59.8063 40.015 60.6463 39.665C61.4863 39.2917 62.2913 39.1283 63.0613 39.175C63.8313 39.1983 64.5197 39.42 65.1263 39.84C65.7563 40.26 66.1413 40.8783 66.2813 41.695C66.188 42.3483 65.873 43.1417 65.3363 44.075C65.4763 44.3783 65.663 44.74 65.8963 45.16C66.1297 45.5567 66.1763 45.965 66.0363 46.385C65.4297 47.6217 64.8113 48.8583 64.1813 50.095C63.5747 51.3317 63.073 52.4167 62.6763 53.35C62.2797 54.2833 61.918 55.135 61.5913 55.905C61.288 56.6517 60.973 57.41 60.6463 58.18C59.5263 60.98 58.7097 63.2667 58.1963 65.04C57.7063 66.79 57.193 68.2133 56.6563 69.31V69.415H56.6213C56.4113 69.9517 56.003 70.3367 55.3963 70.57C54.813 70.8267 54.2063 70.92 53.5763 70.85C52.9463 70.8033 52.398 70.605 51.9313 70.255C51.4647 69.905 51.2547 69.4033 51.3013 68.75C51.3713 68.12 51.4647 67.5133 51.5813 66.93C51.7213 66.3233 51.9313 65.2267 52.2113 63.64C52.7713 60.4433 53.8447 55.94 55.4313 50.13C54.7547 50.0367 54.1013 49.78 53.4713 49.36C52.8647 48.94 52.503 48.5083 52.3863 48.065Z" fill="#FFFCFC"/>
</svg>
