<svg width="100" height="100" viewBox="0 0 100 100" fill="none" xmlns="http://www.w3.org/2000/svg">
<circle cx="50" cy="50" r="50" fill="#E3B873"/>
<path d="M31.67 40.515C32.02 39.8383 32.58 39.1733 33.35 38.52C34.12 37.8667 34.9833 37.3183 35.94 36.875C38.1567 35.8483 40.14 35.7317 41.89 36.525C42.8233 36.945 43.325 37.225 43.395 37.365C43.4883 37.505 43.5233 37.6567 43.5 37.82C43.4767 37.9833 43.4767 38.2283 43.5 38.555C45.5767 37.7383 47.07 38.3333 47.98 40.34C48.7733 42.1367 48.9833 44.5867 48.61 47.69C48.2133 50.7933 47.4317 53.4417 46.265 55.635C45.4017 58.085 44.0367 60.3833 42.17 62.53C41.4467 63.3933 40.77 64.0467 40.14 64.49C39.5333 64.9567 39.1017 65.1667 38.845 65.12C38.3783 65.2133 37.9583 65.3067 37.585 65.4C37.0717 65.54 36.6283 65.61 36.255 65.61C36.2083 65.6567 36.1617 65.6917 36.115 65.715C36.0917 65.7383 36.0683 65.7733 36.045 65.82L34.995 66.135C34.9483 66.5083 34.645 66.765 34.085 66.905C33.525 67.0683 32.8833 67.1033 32.16 67.01C31.46 66.9167 30.7483 66.7067 30.025 66.38C29.3017 66.0767 28.765 65.6333 28.415 65.05C27.855 63.79 27.4933 62.7867 27.33 62.04C26.8633 59.5667 26.91 56.3933 27.47 52.52C27.89 49.6733 28.6367 47.0367 29.71 44.61C30.2467 43.35 30.9 41.985 31.67 40.515ZM38.215 44.47C36.4883 47.9233 35.3333 51.6333 34.75 55.6C34.5633 56.9767 34.5283 58.26 34.645 59.45H34.715L34.75 59.415C37.2233 55.6817 39.09 51.6333 40.35 47.27C40.77 45.7533 40.9567 44.5517 40.91 43.665C40.8867 42.7783 40.735 42.2067 40.455 41.95C40.3617 42.0433 40.3033 42.09 40.28 42.09C40.28 42.09 40.2683 42.0667 40.245 42.02C40.1517 41.9033 40.0233 41.8567 39.86 41.88C39.5333 42.3233 39.23 42.7783 38.95 43.245L38.215 44.47ZM58.2213 45.03C57.9647 46.0333 56.9847 46.78 55.2813 47.27C53.7413 47.69 52.3647 47.6433 51.1513 47.13C50.5913 46.8733 50.183 46.5 49.9263 46.01C49.693 45.52 49.728 44.89 50.0313 44.12C51.128 42.02 52.388 40.2467 53.8113 38.8C54.3013 38.2867 54.7913 37.8783 55.2813 37.575C55.9347 37.0617 56.763 36.6417 57.7663 36.315C58.793 35.965 59.8547 35.7783 60.9513 35.755C63.4947 35.7083 65.4897 36.4083 66.9363 37.855C68.2663 38.9983 68.8497 40.48 68.6863 42.3C68.4763 44.61 66.773 47.7367 63.5763 51.68C62.2463 53.3133 60.718 54.9 58.9913 56.44C57.288 57.9567 55.6663 59.45 54.1263 60.92C53.473 60.5467 53.2163 60.2317 53.3563 59.975C53.4963 59.695 53.8697 59.4733 54.4763 59.31C55.083 59.1467 55.8413 59.0417 56.7513 58.995C57.6613 58.925 58.5597 58.9133 59.4463 58.96C61.5697 59.0767 62.8063 59.38 63.1563 59.87C63.4597 60.0567 63.6463 60.4067 63.7163 60.92C63.8097 61.4333 63.7863 61.9933 63.6463 62.6C63.3197 63.9767 62.713 65.015 61.8263 65.715C61.2197 66.3217 59.598 66.7883 56.9613 67.115C54.3247 67.4417 51.9913 67.4767 49.9613 67.22C48.9813 67.08 48.1997 66.8583 47.6163 66.555C47.033 66.2517 46.823 65.8783 46.9863 65.435C47.1497 65.015 47.1497 64.6883 46.9863 64.455C46.823 64.2217 46.648 63.9767 46.4613 63.72C46.018 63.0433 46.0413 62.25 46.5313 61.34C47.2547 60.1267 47.8963 59.2167 48.4563 58.61C49.0163 58.0033 49.588 57.35 50.1713 56.65C50.778 55.95 51.4663 55.1917 52.2363 54.375C53.0297 53.5583 53.8113 52.7533 54.5813 51.96C56.308 50.14 57.778 48.4017 58.9913 46.745C59.5513 45.9283 59.983 45.17 60.2863 44.47C60.5897 43.77 60.718 42.9883 60.6713 42.125C60.3913 42.4283 60.1347 42.685 59.9013 42.895C59.668 43.0817 59.458 43.28 59.2713 43.49C58.7813 43.9567 58.4313 44.47 58.2213 45.03Z" fill="#F5EDED"/>
</svg>
