<svg width="95" height="100" viewBox="0 0 95 100" fill="none" xmlns="http://www.w3.org/2000/svg">
<ellipse cx="47.5" cy="50" rx="47.5" ry="50" fill="#E3B873"/>
<path d="M32.67 43.515C33.02 42.8383 33.58 42.1733 34.35 41.52C35.12 40.8667 35.9833 40.3183 36.94 39.875C39.1567 38.8483 41.14 38.7317 42.89 39.525C43.8233 39.945 44.325 40.225 44.395 40.365C44.4883 40.505 44.5233 40.6567 44.5 40.82C44.4767 40.9833 44.4767 41.2283 44.5 41.555C46.5767 40.7383 48.07 41.3333 48.98 43.34C49.7733 45.1367 49.9833 47.5867 49.61 50.69C49.2133 53.7933 48.4317 56.4417 47.265 58.635C46.4017 61.085 45.0367 63.3833 43.17 65.53C42.4467 66.3933 41.77 67.0467 41.14 67.49C40.5333 67.9567 40.1017 68.1667 39.845 68.12C39.3783 68.2133 38.9583 68.3067 38.585 68.4C38.0717 68.54 37.6283 68.61 37.255 68.61C37.2083 68.6567 37.1617 68.6917 37.115 68.715C37.0917 68.7383 37.0683 68.7733 37.045 68.82L35.995 69.135C35.9483 69.5083 35.645 69.765 35.085 69.905C34.525 70.0683 33.8833 70.1033 33.16 70.01C32.46 69.9167 31.7483 69.7067 31.025 69.38C30.3017 69.0767 29.765 68.6333 29.415 68.05C28.855 66.79 28.4933 65.7867 28.33 65.04C27.8633 62.5667 27.91 59.3933 28.47 55.52C28.89 52.6733 29.6367 50.0367 30.71 47.61C31.2467 46.35 31.9 44.985 32.67 43.515ZM39.215 47.47C37.4883 50.9233 36.3333 54.6333 35.75 58.6C35.5633 59.9767 35.5283 61.26 35.645 62.45H35.715L35.75 62.415C38.2233 58.6817 40.09 54.6333 41.35 50.27C41.77 48.7533 41.9567 47.5517 41.91 46.665C41.8867 45.7783 41.735 45.2067 41.455 44.95C41.3617 45.0433 41.3033 45.09 41.28 45.09C41.28 45.09 41.2683 45.0667 41.245 45.02C41.1517 44.9033 41.0233 44.8567 40.86 44.88C40.5333 45.3233 40.23 45.7783 39.95 46.245L39.215 47.47ZM54.6713 57.13C53.7613 56.85 53.3647 56.2667 53.4813 55.38C53.6213 54.4933 54.1697 53.6183 55.1263 52.755C55.523 52.3117 56.0597 51.7867 56.7363 51.18C57.4363 50.5733 58.1247 49.9433 58.8013 49.29C60.5513 47.6333 61.5547 46.3383 61.8113 45.405C60.7613 45.685 59.8747 45.9533 59.1513 46.21C58.428 46.4433 57.8097 46.6183 57.2963 46.735C56.783 46.8283 56.3397 46.84 55.9663 46.77C55.6163 46.7 55.313 46.5367 55.0563 46.28C54.823 46.0233 54.648 45.7083 54.5313 45.335C54.4147 44.9617 54.3563 44.5767 54.3563 44.18C54.3563 43.2233 54.788 42.64 55.6513 42.43C55.8847 42.3833 56.0597 42.2783 56.1763 42.115C56.3163 41.9517 56.4447 41.7767 56.5613 41.59C56.9113 41.0533 57.3313 40.7383 57.8213 40.645C58.4047 40.435 59.058 40.19 59.7813 39.91C60.528 39.63 61.298 39.385 62.0913 39.175C64.7047 38.475 66.7813 38.895 68.3213 40.435C69.418 41.5317 69.8497 43.0367 69.6163 44.95C69.4997 45.93 69.1613 47.0383 68.6013 48.275C68.088 49.0917 67.5397 49.7567 66.9563 50.27C66.373 50.7833 65.8363 51.215 65.3463 51.565C64.8797 51.915 64.3547 52.3117 63.7713 52.755C65.008 52.895 65.9413 53.3617 66.5713 54.155C67.2013 54.925 67.5747 55.87 67.6913 56.99C67.9013 59.2767 67.213 61.7733 65.6263 64.48C63.8297 67.4667 59.968 69.2283 54.0413 69.765C52.408 69.8817 51.043 69.7067 49.9463 69.24C48.8497 68.7733 48.208 68.12 48.0213 67.28C47.8113 66.72 47.7997 66.1483 47.9863 65.565C48.1497 64.9583 48.418 64.4333 48.7913 63.99C49.188 63.5467 49.643 63.2317 50.1563 63.045C50.6697 62.835 51.1713 62.8583 51.6613 63.115C52.9913 63.2783 53.8897 63.325 54.3563 63.255C55.173 63.1617 56.293 62.7767 57.7163 62.1C58.183 61.8667 58.673 61.5167 59.1863 61.05C59.6997 60.56 60.0963 60.07 60.3763 59.58C60.6797 59.0667 60.7963 58.6233 60.7263 58.25C60.6563 57.8767 60.3413 57.6783 59.7813 57.655C59.2213 57.6317 58.5097 57.62 57.6463 57.62C56.783 57.62 55.7913 57.4567 54.6713 57.13Z" fill="#FCEEEE"/>
</svg>
