<svg width="95" height="100" viewBox="0 0 95 100" fill="none" xmlns="http://www.w3.org/2000/svg">
<ellipse cx="47.5" cy="50" rx="47.5" ry="50" fill="#E3B873"/>
<path d="M32.67 44.515C33.02 43.8383 33.58 43.1733 34.35 42.52C35.12 41.8667 35.9833 41.3183 36.94 40.875C39.1567 39.8483 41.14 39.7317 42.89 40.525C43.8233 40.945 44.325 41.225 44.395 41.365C44.4883 41.505 44.5233 41.6567 44.5 41.82C44.4767 41.9833 44.4767 42.2283 44.5 42.555C46.5767 41.7383 48.07 42.3333 48.98 44.34C49.7733 46.1367 49.9833 48.5867 49.61 51.69C49.2133 54.7933 48.4317 57.4417 47.265 59.635C46.4017 62.085 45.0367 64.3833 43.17 66.53C42.4467 67.3933 41.77 68.0467 41.14 68.49C40.5333 68.9567 40.1017 69.1667 39.845 69.12C39.3783 69.2133 38.9583 69.3067 38.585 69.4C38.0717 69.54 37.6283 69.61 37.255 69.61C37.2083 69.6567 37.1617 69.6917 37.115 69.715C37.0917 69.7383 37.0683 69.7733 37.045 69.82L35.995 70.135C35.9483 70.5083 35.645 70.765 35.085 70.905C34.525 71.0683 33.8833 71.1033 33.16 71.01C32.46 70.9167 31.7483 70.7067 31.025 70.38C30.3017 70.0767 29.765 69.6333 29.415 69.05C28.855 67.79 28.4933 66.7867 28.33 66.04C27.8633 63.5667 27.91 60.3933 28.47 56.52C28.89 53.6733 29.6367 51.0367 30.71 48.61C31.2467 47.35 31.9 45.985 32.67 44.515ZM39.215 48.47C37.4883 51.9233 36.3333 55.6333 35.75 59.6C35.5633 60.9767 35.5283 62.26 35.645 63.45H35.715L35.75 63.415C38.2233 59.6817 40.09 55.6333 41.35 51.27C41.77 49.7533 41.9567 48.5517 41.91 47.665C41.8867 46.7783 41.735 46.2067 41.455 45.95C41.3617 46.0433 41.3033 46.09 41.28 46.09C41.28 46.09 41.2683 46.0667 41.245 46.02C41.1517 45.9033 41.0233 45.8567 40.86 45.88C40.5333 46.3233 40.23 46.7783 39.95 47.245L39.215 48.47ZM67.4113 58.095C67.318 58.3517 66.688 58.5033 65.5213 58.55H65.5563C65.9297 58.55 65.8247 58.62 65.2413 58.76C64.728 58.8767 64.2963 58.935 63.9463 58.935C63.153 61.8517 62.6513 63.6717 62.4413 64.395C62.2313 65.1183 62.0563 65.7367 61.9163 66.25C61.7997 66.74 61.6247 67.2183 61.3913 67.685L61.0413 68.42C61.0413 68.5367 61.053 68.63 61.0763 68.7C60.8197 69.6567 60.3997 70.3917 59.8163 70.905C59.2563 71.4417 58.638 71.7567 57.9613 71.85C57.2847 71.9433 56.608 71.815 55.9313 71.465C55.278 71.115 54.7297 70.5433 54.2863 69.75L54.5313 68.07C54.368 67.93 54.1697 67.8367 53.9363 67.79C53.7263 67.7433 53.528 67.6967 53.3413 67.65C52.8513 67.5333 52.6063 67.2767 52.6063 66.88C52.863 65.9233 53.0847 65.0017 53.2713 64.115C53.458 63.205 53.808 62.365 54.3213 61.595L54.7413 60.44L52.4663 60.615C51.253 60.7083 50.4013 60.6267 49.9113 60.37C49.4213 60.09 48.9663 59.7167 48.5463 59.25C48.1497 58.76 47.8463 58.2933 47.6363 57.85C47.403 57.4067 47.3213 56.94 47.3913 56.45C47.4847 55.5633 48.103 54.3733 49.2463 52.88C50.413 51.3867 51.4163 50.1267 52.2563 49.1C53.0963 48.0733 53.9597 47.105 54.8463 46.195C56.643 44.3517 58.7663 42.485 61.2163 40.595C62.0097 39.9417 63.048 39.615 64.3313 39.615C65.3347 39.6617 66.0463 39.79 66.4663 40C67.283 40.3733 67.7963 40.9683 68.0063 41.785V42.065C68.7297 42.625 68.928 43.3367 68.6013 44.2C68.4147 44.8067 68.0763 45.4833 67.5863 46.23C67.0963 46.9767 66.8047 47.5133 66.7113 47.84L65.9763 50.64C65.8597 51.0833 65.7547 51.4917 65.6613 51.865C65.5913 52.215 65.5097 52.5767 65.4163 52.95C65.3463 53.3 65.2647 53.6617 65.1713 54.035C65.078 54.385 64.9847 54.7817 64.8913 55.225L65.5213 55.19C65.7313 55.19 65.9413 55.19 66.1513 55.19C66.3147 55.12 66.4897 55.05 66.6763 54.98C66.863 54.8867 67.0497 54.8167 67.2363 54.77C67.6797 54.7 68.0063 54.805 68.2163 55.085C68.4263 55.365 68.543 55.6917 68.5663 56.065C68.5897 56.415 68.5547 56.7417 68.4613 57.045C68.368 57.3483 68.2163 57.605 68.0063 57.815C67.8197 58.0017 67.6213 58.095 67.4113 58.095ZM57.9963 50.78C55.103 53.5333 53.4463 55.1667 53.0263 55.68C52.6297 56.1933 52.443 56.52 52.4663 56.66C52.513 56.7767 52.688 56.8117 52.9913 56.765C53.318 56.7183 53.738 56.6133 54.2513 56.45C54.7647 56.2867 55.3363 56.1233 55.9663 55.96C56.0597 55.6567 56.3047 55.0267 56.7013 54.07C57.4947 52.18 57.9263 51.0833 57.9963 50.78ZM60.7963 69.19C60.8197 69.0733 60.843 68.9683 60.8663 68.875C60.703 69.295 60.6797 69.4 60.7963 69.19Z" fill="#FFF7F7"/>
</svg>
